<?xml version="1.0" encoding="UTF-8"?>
<!DOCTYPE svg PUBLIC "-//W3C//DTD SVG 1.1//EN" "http://www.w3.org/Graphics/SVG/1.1/DTD/svg11.dtd">
<svg version="1.1" xmlns="http://www.w3.org/2000/svg" xmlns:xlink="http://www.w3.org/1999/xlink" x="0" y="0" width="1000" height="1000" viewBox="0, 0, 1000, 1000">
  <g id="Layer_1">
    <path d="M0.005,863.93 L0.005,866.504 L2.406,866.551 C190.129,864.544 391.878,815.856 532.413,684.093 C585.537,634.286 628.037,571.643 644.453,500 C650.182,521.774 651.893,544.298 652.319,566.724 C652.319,806.016 361.343,1000 2.406,1000 L0.005,999.98 L0.005,866.504 z" fill="#8BC47B"/>
    <path d="M0.005,755.966 L0.005,766.071 L2.405,766.12 C136.158,764.648 279.905,728.955 380.036,632.359 C417.887,595.846 448.168,549.922 459.865,497.4 C463.946,513.363 465.166,529.876 465.469,546.316 C465.469,721.741 258.149,863.951 2.406,863.951 L0.005,863.93 L0.005,766.071 z" fill="#8BC47B"/>
    <path d="M2.405,228.681 C25.078,229.137 31.936,229.049 58.494,231.165 C68.32,231.948 78.092,233.306 87.891,234.377 C199.482,253.636 334.045,328.082 336.405,456.017 C336.473,465.826 335.395,475.582 333.719,485.226 C333.361,487.282 332.812,489.298 332.359,491.334 C308.021,388.379 202.227,330.929 109.303,309.369 L0.005,297.375 L0.005,685.308 L2.076,685.35 C98.646,684.288 202.431,658.517 274.726,588.775 C302.054,562.412 323.917,529.255 332.362,491.334 C335.309,502.86 336.189,514.782 336.408,526.652 C336.408,653.309 186.723,755.984 2.076,755.984 L0.005,755.966 L0.005,685.308 L0.005,228.749 L2.405,228.681 z" fill="#8BC47B"/>
    <path d="M2.4,-0 L19.175,0.141 C103.952,1.728 188.605,13.789 269.863,38.274 C450.36,92.663 648.363,225.03 652.314,433.276 C652.447,451.807 650.35,470.24 647.092,488.459 C646.397,492.344 645.329,496.153 644.448,500 C597.137,305.487 391.482,196.947 210.847,156.214 C178.391,149.057 145.57,143.243 112.483,139.954 C76.154,133.497 39.25,131.169 2.401,130.849 L0,130.87 L0,130.87 L0,0.036 L2.4,-0 z" fill="#8BC47B"/>
    <path d="M2.405,133.449 C36.358,134.113 39.59,133.867 81.126,136.837 C91.605,137.587 102.034,138.915 112.488,139.954 C269.555,166.086 462.125,267.054 465.469,448.484 C465.564,462.07 464.07,475.583 461.749,488.94 C461.254,491.788 460.493,494.58 459.865,497.4 C426.156,354.802 279.627,275.232 150.924,245.37 C130.131,240.594 109.106,236.695 87.891,234.377 C59.614,228.949 30.827,226.934 2.073,226.685 L0.005,226.696 L0.005,228.749 C0.005,251.075 26.58,262.758 0.005,226.696 L0.005,133.512 L2.405,133.449 z" fill="#8BC47B"/>
  </g>
</svg>
